<svg width="105" height="38" viewBox="0 0 105 38" fill="none" xmlns="http://www.w3.org/2000/svg">
<path d="M23.2891 20.8906C23.2891 25.6094 22.3125 29.2188 20.3594 31.7188C18.4062 34.2188 15.5469 35.4688 11.7812 35.4688C8.0625 35.4688 5.21875 34.2422 3.25 31.7891C1.28125 29.3359 0.273438 25.8203 0.226562 21.2422V14.9609C0.226562 10.1953 1.21094 6.57812 3.17969 4.10938C5.16406 1.64063 8.01562 0.40625 11.7344 0.40625C15.4531 0.40625 18.2969 1.63281 20.2656 4.08594C22.2344 6.52344 23.2422 10.0312 23.2891 14.6094V20.8906ZM16.5156 14C16.5156 11.1719 16.125 9.11719 15.3438 7.83594C14.5781 6.53906 13.375 5.89062 11.7344 5.89062C10.1406 5.89062 8.96094 6.50781 8.19531 7.74219C7.44531 8.96094 7.04688 10.875 7 13.4844V21.7812C7 24.5625 7.375 26.6328 8.125 27.9922C8.89062 29.3359 10.1094 30.0078 11.7812 30.0078C13.4375 30.0078 14.6328 29.3594 15.3672 28.0625C16.1016 26.7656 16.4844 24.7812 16.5156 22.1094V14ZM34.7734 14.9375H38.3828C40.1016 14.9375 41.375 14.5078 42.2031 13.6484C43.0312 12.7891 43.4453 11.6484 43.4453 10.2266C43.4453 8.85156 43.0312 7.78125 42.2031 7.01562C41.3906 6.25 40.2656 5.86719 38.8281 5.86719C37.5312 5.86719 36.4453 6.22656 35.5703 6.94531C34.6953 7.64844 34.2578 8.57031 34.2578 9.71094H27.4844C27.4844 7.92969 27.9609 6.33594 28.9141 4.92969C29.8828 3.50781 31.2266 2.39844 32.9453 1.60156C34.6797 0.804688 36.5859 0.40625 38.6641 0.40625C42.2734 0.40625 45.1016 1.27344 47.1484 3.00781C49.1953 4.72656 50.2188 7.10156 50.2188 10.1328C50.2188 11.6953 49.7422 13.1328 48.7891 14.4453C47.8359 15.7578 46.5859 16.7656 45.0391 17.4688C46.9609 18.1562 48.3906 19.1875 49.3281 20.5625C50.2812 21.9375 50.7578 23.5625 50.7578 25.4375C50.7578 28.4688 49.6484 30.8984 47.4297 32.7266C45.2266 34.5547 42.3047 35.4688 38.6641 35.4688C35.2578 35.4688 32.4688 34.5703 30.2969 32.7734C28.1406 30.9766 27.0625 28.6016 27.0625 25.6484H33.8359C33.8359 26.9297 34.3125 27.9766 35.2656 28.7891C36.2344 29.6016 37.4219 30.0078 38.8281 30.0078C40.4375 30.0078 41.6953 29.5859 42.6016 28.7422C43.5234 27.8828 43.9844 26.75 43.9844 25.3438C43.9844 21.9375 42.1094 20.2344 38.3594 20.2344H34.7734V14.9375ZM57.8594 37.9297H52.8203L65.3828 0.875H70.4219L57.8594 37.9297Z" fill="white"/>
<path d="M86.8838 26.1816C86.8838 29.1309 86.2734 31.3867 85.0527 32.9492C83.832 34.5117 82.0449 35.293 79.6914 35.293C77.3672 35.293 75.5898 34.5264 74.3594 32.9932C73.1289 31.46 72.499 29.2627 72.4697 26.4014V22.4756C72.4697 19.4971 73.085 17.2363 74.3154 15.6934C75.5557 14.1504 77.3379 13.3789 79.6621 13.3789C81.9863 13.3789 83.7637 14.1455 84.9941 15.6787C86.2246 17.2021 86.8545 19.3945 86.8838 22.2559V26.1816ZM82.6504 21.875C82.6504 20.1074 82.4062 18.8232 81.918 18.0225C81.4395 17.2119 80.6875 16.8066 79.6621 16.8066C78.666 16.8066 77.9287 17.1924 77.4502 17.9639C76.9814 18.7256 76.7324 19.9219 76.7031 21.5527V26.7383C76.7031 28.4766 76.9375 29.7705 77.4062 30.6201C77.8848 31.46 78.6465 31.8799 79.6914 31.8799C80.7266 31.8799 81.4736 31.4746 81.9326 30.6641C82.3916 29.8535 82.6309 28.6133 82.6504 26.9434V21.875ZM101.239 13.4521V16.9385H100.829C98.915 16.9678 97.3721 17.4658 96.2002 18.4326C95.0381 19.3994 94.3398 20.7422 94.1055 22.4609C95.2383 21.3086 96.6689 20.7324 98.3975 20.7324C100.253 20.7324 101.728 21.3965 102.821 22.7246C103.915 24.0527 104.462 25.8008 104.462 27.9688C104.462 29.3555 104.159 30.6104 103.554 31.7334C102.958 32.8564 102.108 33.7305 101.005 34.3555C99.9111 34.9805 98.6709 35.293 97.2842 35.293C95.0381 35.293 93.2217 34.5117 91.835 32.9492C90.458 31.3867 89.7695 29.3018 89.7695 26.6943V25.1709C89.7695 22.8564 90.2041 20.8154 91.0732 19.0479C91.9521 17.2705 93.207 15.8984 94.8379 14.9316C96.4785 13.9551 98.3779 13.4619 100.536 13.4521H101.239ZM97.1084 24.1309C96.4248 24.1309 95.8047 24.3115 95.248 24.6729C94.6914 25.0244 94.2812 25.4932 94.0176 26.0791V27.3682C94.0176 28.7842 94.2959 29.8926 94.8525 30.6934C95.4092 31.4844 96.1904 31.8799 97.1963 31.8799C98.1045 31.8799 98.8369 31.5234 99.3936 30.8105C99.96 30.0879 100.243 29.1553 100.243 28.0127C100.243 26.8506 99.96 25.9131 99.3936 25.2002C98.8271 24.4873 98.0654 24.1309 97.1084 24.1309Z" fill="white" fill-opacity="0.6"/>
</svg>
