<svg width="21" height="14" viewBox="0 0 21 14" fill="none" xmlns="http://www.w3.org/2000/svg">
<path d="M0.944031 13.2978V0.245209H5.51604C7.09981 0.245209 8.30108 0.550009 9.11985 1.15961C9.93863 1.76323 10.348 2.65074 10.348 3.82213C10.348 4.46162 10.1837 5.02639 9.85496 5.51646C9.52626 6.00056 9.06906 6.35616 8.48336 6.58327C9.15273 6.75061 9.67866 7.08828 10.0612 7.59628C10.4496 8.10428 10.6439 8.72583 10.6439 9.46094C10.6439 10.716 10.2434 11.6663 9.44258 12.3117C8.64174 12.9572 7.50023 13.2859 6.01806 13.2978H0.944031ZM3.63345 7.61421V11.1373H5.93738C6.57089 11.1373 7.06395 10.9879 7.41656 10.6891C7.77515 10.3843 7.95444 9.96595 7.95444 9.43405C7.95444 8.23875 7.33588 7.63214 6.09874 7.61421H3.63345ZM3.63345 5.71369H5.62361C6.98028 5.68978 7.65861 5.14891 7.65861 4.09107C7.65861 3.4994 7.48529 3.07507 7.13865 2.81808C6.79799 2.55512 6.25712 2.42364 5.51604 2.42364H3.63345V5.71369Z" fill="#A3ABB6"/>
<path d="M16.964 13.4771C15.5416 13.4771 14.3821 13.0409 13.4857 12.1683C12.5952 11.2957 12.1499 10.1333 12.1499 8.68101V8.43C12.1499 7.45583 12.3382 6.58625 12.7147 5.82126C13.0912 5.0503 13.6231 4.45863 14.3104 4.04625C15.0037 3.6279 15.7926 3.41872 16.6771 3.41872C18.0039 3.41872 19.0468 3.83707 19.8058 4.67378C20.5708 5.51049 20.9533 6.69682 20.9533 8.23277V9.29061H14.7766C14.8603 9.92412 15.1113 10.4321 15.5296 10.8146C15.954 11.1971 16.4889 11.3884 17.1343 11.3884C18.1324 11.3884 18.9123 11.0268 19.4741 10.3036L20.7471 11.729C20.3586 12.2789 19.8327 12.7092 19.1693 13.0199C18.5059 13.3247 17.7708 13.4771 16.964 13.4771ZM16.6681 5.51646C16.1542 5.51646 15.7358 5.68978 15.4131 6.03642C15.0963 6.38305 14.8931 6.8791 14.8035 7.52456H18.4073V7.31837C18.3954 6.74463 18.24 6.30237 17.9411 5.99159C17.6423 5.67484 17.218 5.51646 16.6681 5.51646Z" fill="#A3ABB6"/>
</svg>
