<svg width="21" height="16" viewBox="0 0 21 16" fill="none" xmlns="http://www.w3.org/2000/svg">
<path d="M18.3355 4.1026C18.3486 4.27298 18.3486 4.44239 18.3486 4.6118C18.3486 9.79634 14.2616 15.7705 6.79238 15.7705C4.49122 15.7705 2.35342 15.1269 0.554443 14.0092C0.881163 14.0452 1.19578 14.0579 1.53561 14.0579C3.36382 14.0622 5.14027 13.4719 6.5786 12.3823C5.73096 12.3675 4.90927 12.0975 4.22827 11.6099C3.54726 11.1224 3.04093 10.4418 2.77997 9.66296C3.03106 9.69898 3.28316 9.72332 3.54736 9.72332C3.91139 9.72332 4.27744 9.67464 4.61727 9.58994C3.69737 9.41061 2.8702 8.92918 2.2764 8.22753C1.6826 7.52588 1.35883 6.6473 1.36015 5.7412V5.69252C1.90166 5.98364 2.52989 6.1657 3.19543 6.19004C2.63788 5.83232 2.1807 5.34691 1.86469 4.77711C1.54868 4.20732 1.38366 3.57086 1.38435 2.92451C1.38435 2.19624 1.58502 1.52834 1.93695 0.94611C2.95759 2.15829 4.23055 3.14997 5.6734 3.85691C7.11624 4.56385 8.69679 4.9703 10.3127 5.04993C10.2502 4.75784 10.2118 4.45505 10.2118 4.15128C10.2116 3.63619 10.3165 3.12611 10.5205 2.65018C10.7245 2.17426 11.0237 1.74183 11.4009 1.37761C11.7782 1.01339 12.226 0.724524 12.719 0.527528C13.2119 0.330532 13.7402 0.229267 14.2737 0.229523C15.4434 0.229523 16.4992 0.702704 17.2414 1.46797C18.1507 1.29819 19.0227 0.977677 19.8188 0.520636C19.5157 1.4269 18.8808 2.19537 18.033 2.68208C18.8395 2.59326 19.6277 2.38849 20.3714 2.07454C19.8159 2.85645 19.1276 3.54212 18.3355 4.1026Z" fill="#A3ABB6"/>
</svg>
