<svg width="20" height="19" viewBox="0 0 20 19" fill="none" xmlns="http://www.w3.org/2000/svg">
<path d="M1.13689 4.83652C1.13689 6.40683 1.66138 7.53989 2.69459 8.20523C3.54176 8.75179 4.52347 8.83377 5.0343 8.83377C5.15832 8.83377 5.25818 8.82747 5.32755 8.82326C5.32755 8.82326 5.16568 9.87855 5.94769 10.9212H5.91195C4.55711 10.9212 0.138367 11.204 0.138367 14.8386C0.138367 18.5342 4.19659 18.7223 5.01117 18.7223C5.07529 18.7223 5.11313 18.7202 5.11313 18.7202C5.12154 18.7202 5.17935 18.7223 5.2792 18.7223C5.80158 18.7223 7.15222 18.6572 8.40616 18.0465C10.0332 17.2582 10.8583 15.8823 10.8583 13.963C10.8583 12.1089 9.60124 11.0053 8.68365 10.1981C8.12342 9.70512 7.63887 9.28048 7.63887 8.86741C7.63887 8.44698 7.99309 8.1306 8.4398 7.73014C9.16399 7.08373 9.84719 6.16193 9.84719 4.41924C9.84719 2.88781 9.64854 1.85881 8.42403 1.20609C8.55121 1.14092 9.00317 1.09362 9.226 1.06209C9.88923 0.971696 10.8594 0.868691 10.8594 0.327385V0.223328H6.02547C5.97712 0.22543 1.13689 0.404113 1.13689 4.83652ZM8.94011 14.3099C9.03261 15.7877 7.76816 16.8777 5.86885 17.0154C3.94012 17.1573 2.35299 16.2891 2.2605 14.8123C2.2153 14.1018 2.52747 13.4081 3.13815 12.8542C3.75723 12.2939 4.60756 11.9471 5.53251 11.8788C5.64182 11.8724 5.75008 11.8661 5.85834 11.8661C7.64413 11.8672 8.85287 12.9162 8.94011 14.3099ZM7.67776 3.82433C8.1518 5.49344 7.43601 7.23613 6.29454 7.55881C6.16314 7.59543 6.02733 7.61382 5.89093 7.61347C4.84615 7.61347 3.81084 6.55608 3.42614 5.09824C3.21172 4.2826 3.22959 3.56576 3.47555 2.87836C3.71624 2.20041 4.15139 1.74529 4.69795 1.59078C4.82934 1.55399 4.96493 1.53508 5.10262 1.53508C6.36391 1.53508 7.17535 2.05851 7.67776 3.82433ZM15.8636 7.37067V4.21743H13.7614V7.37067H10.6082V9.47283H13.7614V12.6261H15.8636V9.47283H19.0168V7.37067H15.8636Z" fill="#A3ABB6"/>
</svg>
